<svg xmlns="http://www.w3.org/2000/svg" width="960" height="720" viewBox="0 0 960 720" role="img" aria-labelledby="title desc">
  <title id="title">Sports backpack prize illustration</title>
  <desc id="desc">A sporty backpack with warm accent colours.</desc>
  <rect width="960" height="720" rx="44" fill="#fff7f2"/>
  <circle cx="742" cy="162" r="92" fill="#f8d6c6"/>
  <circle cx="218" cy="545" r="132" fill="#f5eadf"/>
  <path d="M355 250c7-105 73-162 125-162s118 57 125 162" fill="none" stroke="#4a3c31" stroke-width="30" stroke-linecap="round"/>
  <path d="M252 256c0-52 42-94 94-94h268c52 0 94 42 94 94v279c0 61-49 110-110 110H362c-61 0-110-49-110-110V256Z" fill="#c75b39"/>
  <path d="M314 282c0-35 28-63 63-63h206c35 0 63 28 63 63v238c0 35-28 63-63 63H377c-35 0-63-28-63-63V282Z" fill="#e98561"/>
  <path d="M373 326h214" stroke="#fff4ec" stroke-width="28" stroke-linecap="round"/>
  <path d="M354 439c0-39 32-71 71-71h110c39 0 71 32 71 71v113H354V439Z" fill="#fff4ec"/>
  <path d="M354 439h252" stroke="#4a3c31" stroke-width="18" stroke-linecap="round"/>
  <path d="M315 327c-41 32-64 82-64 141v88" fill="none" stroke="#4a3c31" stroke-width="24" stroke-linecap="round"/>
  <path d="M645 327c41 32 64 82 64 141v88" fill="none" stroke="#4a3c31" stroke-width="24" stroke-linecap="round"/>
  <path d="M437 512h86" stroke="#c75b39" stroke-width="18" stroke-linecap="round"/>
</svg>
